<svg id="space_x5F_station"  enable-background="new 0 0 300 300" height="512" viewBox="0 0 300 300" width="512" xmlns="http://www.w3.org/2000/svg" fill="white"><path fill="white" d="m196 32.657c12.512 0 22.688 10.176 22.688 22.686 0 2.209 1.789 4 4 4s4-1.791 4-4c0-16.92-13.766-30.686-30.688-30.686-2.211 0-4 1.791-4 4s1.789 4 4 4z"/><path fill="white" d="m260 127.343h-32v-8.58c9.619-7.362 17.193-17.75 21.32-30.159.406-1.219.199-2.559-.551-3.602-.754-1.043-1.961-1.66-3.246-1.66h-24.36l-17.233-15.015c-.73-.635-1.664-.984-2.629-.984h-5.301v-8c0-2.209-1.789-4-4-4s-4 1.791-4 4v8h-5.723c-.965 0-1.898.35-2.629.984l-17.235 15.016h-21.437c-1.285 0-2.492.617-3.246 1.66-.75 1.043-.957 2.383-.551 3.602 3.784 11.376 10.473 21.041 18.969 28.248-.048.248-.149.477-.149.739v9.752h-48v-56c0-2.209-1.791-4-4-4s-4 1.791-4 4v32h-27.624v-46c0-2.209-1.791-4-4-4s-4 1.791-4 4v70h-8.375v-56c0-2.209-1.791-4-4-4s-4 1.791-4 4v56h-8c-2.209 0-4 1.791-4 4v92c0 2.209 1.791 4 4 4h3.562v44c0 2.209 1.791 4 4 4h40.438 123.75 16.25 24c2.211 0 4-1.791 4-4v-36-8h4c2.211 0 4-1.791 4-4v-92c0-2.21-1.789-4.001-4-4.001zm-40 0h-7.685c2.64-.953 5.212-2.077 7.685-3.403zm-20.199-52 9.182 8h-12.983v-8zm-16.028 0h4.227v8h-13.407zm-36.957 16h92.867c-8.469 18.977-26.516 31.375-46.434 31.375-19.917 0-37.964-12.399-46.433-31.375zm17.184 31.138c3.235 1.946 6.639 3.582 10.185 4.862h-10.185zm-16.375 12.862v56h-87.625v-56zm-75.25-24h27.625v16h-27.625zm-20.375 132h8c2.209 0 4-1.791 4-4s-1.791-4-4-4h-8v-8h16v20.25h-16zm40 24v-7.125h115.75v7.125zm115.75-28v12.875h-55.75v-12.875zm-63.75 12.875h-52v-12.875h52zm104 15.125h-4v-16c0-2.209-1.789-4-4-4s-4 1.791-4 4v16h-4v-28h16zm0-36h-20c-2.211 0-4 1.791-4 4v32h-8.25v-11.125-.875-20c0-2.209-1.789-4-4-4h-123.75c-2.209 0-4 1.791-4 4v20 .875 11.125h-32.438v-11.75h20.438c2.209 0 4-1.791 4-4v-24.25h172zm8-12h-4-20v-64c0-2.209-1.789-4-4-4s-4 1.791-4 4v64h-16v-32c0-2.209-1.789-4-4-4s-4 1.791-4 4v32h-128-24-.438-3.562v-84h8v60c0 2.209 1.791 4 4 4h95.625c2.211 0 4-1.791 4-4v-60h4.375 64 32z"/><path fill="white" d="m116 151.343h20c2.211 0 4-1.791 4-4s-1.789-4-4-4h-20c-2.209 0-4 1.791-4 4s1.791 4 4 4z"/><path d="m116 163.343h20c2.211 0 4-1.791 4-4s-1.789-4-4-4h-20c-2.209 0-4 1.791-4 4s1.791 4 4 4z"/><circle cx="74" cy="149.343" r="4.711"/><circle fill="white" cx="94" cy="149.343" r="4.711"/><path d="m196 47.343c4.41 0 8 3.588 8 8 0 2.209 1.789 4 4 4s4-1.791 4-4c0-8.822-7.176-16-16-16-2.211 0-4 1.791-4 4s1.789 4 4 4z"/></svg>